<?xml version="1.0" encoding="UTF-8" standalone="no"?>
<!DOCTYPE svg PUBLIC "-//W3C//DTD SVG 1.1//EN"
 "http://www.w3.org/Graphics/SVG/1.1/DTD/svg11.dtd">
<!-- Generated by graphviz version 2.43.0 (0)
 -->
<!-- Title: UML Pages: 1 -->
<svg width="1370pt" height="662pt"
 viewBox="0.00 0.00 1370.00 662.00" xmlns="http://www.w3.org/2000/svg" xmlns:xlink="http://www.w3.org/1999/xlink">
<g id="graph0" class="graph" transform="scale(1 1) rotate(0) translate(4 658)">
<title>UML</title>
<polygon fill="white" stroke="transparent" points="-4,4 -4,-658 1366,-658 1366,4 -4,4"/>
<text text-anchor="start" x="335.5" y="-637.4" font-family="Helvetica,sans-Serif" font-weight="bold" font-size="17.00">Figura 1. Diagrama de clases UML — Capa de dominio (paquete modelo)</text>
<text text-anchor="start" x="518.5" y="-620.4" font-family="Helvetica,sans-Serif" font-size="17.00">Sistema Educativo de Ingenieria UDLA</text>
<!-- Usuario -->
<g id="node1" class="node">
<title>Usuario</title>
<polygon fill="#8a1538" stroke="transparent" points="1126,-338 1126,-374 1354,-374 1354,-338 1126,-338"/>
<polygon fill="none" stroke="black" points="1126,-338 1126,-374 1354,-374 1354,-338 1126,-338"/>
<text text-anchor="start" x="1207" y="-359.2" font-family="Helvetica,sans-Serif" font-weight="bold" font-size="11.00" fill="white">«abstract»</text>
<text text-anchor="start" x="1216" y="-348.2" font-family="Helvetica,sans-Serif" font-weight="bold" font-size="11.00" fill="white">Usuario</text>
<polygon fill="none" stroke="black" points="1126,-276 1126,-338 1354,-338 1354,-276 1126,-276"/>
<text text-anchor="start" x="1133" y="-322.2" font-family="Helvetica,sans-Serif" font-size="11.00">&#45; idUsuario: int</text>
<text text-anchor="start" x="1133" y="-310.2" font-family="Helvetica,sans-Serif" font-size="11.00">&#45; nombres: String</text>
<text text-anchor="start" x="1133" y="-298.2" font-family="Helvetica,sans-Serif" font-size="11.00">&#45; correoUdla: String</text>
<text text-anchor="start" x="1133" y="-286.2" font-family="Helvetica,sans-Serif" font-size="11.00">&#45; contrasena: String</text>
<polygon fill="none" stroke="black" points="1126,-238 1126,-276 1354,-276 1354,-238 1126,-238"/>
<text text-anchor="start" x="1133" y="-260.2" font-family="Helvetica,sans-Serif" font-size="11.00">+ iniciarSesion(correo, clave): boolean</text>
<text text-anchor="start" x="1133" y="-248.2" font-family="Helvetica,sans-Serif" font-size="11.00">+ getRol(): String &#160;{abstract}</text>
</g>
<!-- Estudiante -->
<g id="node2" class="node">
<title>Estudiante</title>
<polygon fill="#8a1538" stroke="transparent" points="621,-582 621,-608 873,-608 873,-582 621,-582"/>
<polygon fill="none" stroke="black" points="621,-582 621,-608 873,-608 873,-582 621,-582"/>
<text text-anchor="start" x="713.5" y="-593.2" font-family="Helvetica,sans-Serif" font-weight="bold" font-size="11.00" fill="white">Estudiante</text>
<polygon fill="none" stroke="black" points="621,-508 621,-582 873,-582 873,-508 621,-508"/>
<text text-anchor="start" x="628" y="-566.2" font-family="Helvetica,sans-Serif" font-size="11.00">&#45; cedula: String</text>
<text text-anchor="start" x="628" y="-554.2" font-family="Helvetica,sans-Serif" font-size="11.00">&#45; semestreActual: int</text>
<text text-anchor="start" x="628" y="-542.2" font-family="Helvetica,sans-Serif" font-size="11.00">&#45; indiceCargaCiencias: int</text>
<text text-anchor="start" x="628" y="-530.2" font-family="Helvetica,sans-Serif" font-size="11.00">&#45; materiasCursadas: List&lt;Materia&gt;</text>
<text text-anchor="start" x="628" y="-518.2" font-family="Helvetica,sans-Serif" font-size="11.00">+ SEMESTRE_MINIMO/MAXIMO: int {static}</text>
<polygon fill="none" stroke="black" points="621,-458 621,-508 873,-508 873,-458 621,-458"/>
<text text-anchor="start" x="628" y="-492.2" font-family="Helvetica,sans-Serif" font-size="11.00">+ getRol(): String</text>
<text text-anchor="start" x="628" y="-480.2" font-family="Helvetica,sans-Serif" font-size="11.00">+ calcularIndiceCarga(materias): int</text>
<text text-anchor="start" x="628" y="-468.2" font-family="Helvetica,sans-Serif" font-size="11.00">+ agregarMateria(m): void</text>
</g>
<!-- Estudiante&#45;&gt;Usuario -->
<g id="edge1" class="edge">
<title>Estudiante&#45;&gt;Usuario</title>
<path fill="none" stroke="#333333" stroke-width="1.4" d="M881.39,-479.6C947.39,-452.89 1027.64,-418.94 1098,-385 1101.53,-383.3 1105.1,-381.55 1108.69,-379.76"/>
<polygon fill="none" stroke="#333333" stroke-width="1.4" points="1110.3,-382.87 1117.66,-375.25 1107.15,-376.62 1110.3,-382.87"/>
</g>
<!-- Materia -->
<g id="node4" class="node">
<title>Materia</title>
<polygon fill="#8a1538" stroke="transparent" points="626,-122 626,-148 869,-148 869,-122 626,-122"/>
<polygon fill="none" stroke="black" points="626,-122 626,-148 869,-148 869,-122 626,-122"/>
<text text-anchor="start" x="723" y="-133.2" font-family="Helvetica,sans-Serif" font-weight="bold" font-size="11.00" fill="white">Materia</text>
<polygon fill="none" stroke="black" points="626,-48 626,-122 869,-122 869,-48 626,-48"/>
<text text-anchor="start" x="633" y="-106.2" font-family="Helvetica,sans-Serif" font-size="11.00">&#45; idMateria: int</text>
<text text-anchor="start" x="633" y="-94.2" font-family="Helvetica,sans-Serif" font-size="11.00">&#45; nombre: String</text>
<text text-anchor="start" x="633" y="-82.2" font-family="Helvetica,sans-Serif" font-size="11.00">&#45; nivelSemestre: int</text>
<text text-anchor="start" x="633" y="-70.2" font-family="Helvetica,sans-Serif" font-size="11.00">&#45; esMateriaFiltro: boolean</text>
<text text-anchor="start" x="633" y="-58.2" font-family="Helvetica,sans-Serif" font-size="11.00">&#45; prerrequisitos: List&lt;Materia&gt;</text>
<polygon fill="none" stroke="black" points="626,-10 626,-48 869,-48 869,-10 626,-10"/>
<text text-anchor="start" x="633" y="-32.2" font-family="Helvetica,sans-Serif" font-size="11.00">+ obtenerPrerrequisitos(): List&lt;Materia&gt;</text>
<text text-anchor="start" x="633" y="-20.2" font-family="Helvetica,sans-Serif" font-size="11.00">+ agregarPrerrequisito(m): void</text>
</g>
<!-- Estudiante&#45;&gt;Materia -->
<g id="edge6" class="edge">
<title>Estudiante&#45;&gt;Materia</title>
<path fill="none" stroke="#333333" d="M747,-453.78C747,-368.89 747,-234.44 747,-152.04"/>
<text text-anchor="middle" x="733.5" y="-304.98" font-family="Helvetica,sans-Serif" font-size="10.00">cursa</text>
<text text-anchor="middle" x="754.61" y="-165.86" font-family="Helvetica,sans-Serif" font-size="10.00">*</text>
<text text-anchor="middle" x="739.39" y="-434.97" font-family="Helvetica,sans-Serif" font-size="10.00">1</text>
</g>
<!-- EvaluacionDiagnostico -->
<g id="node6" class="node">
<title>EvaluacionDiagnostico</title>
<polygon fill="#8a1538" stroke="transparent" points="8,-349 8,-375 336,-375 336,-349 8,-349"/>
<polygon fill="none" stroke="black" points="8,-349 8,-375 336,-375 336,-349 8,-349"/>
<text text-anchor="start" x="102" y="-360.2" font-family="Helvetica,sans-Serif" font-weight="bold" font-size="11.00" fill="white">EvaluacionDiagnostico</text>
<polygon fill="none" stroke="black" points="8,-275 8,-349 336,-349 336,-275 8,-275"/>
<text text-anchor="start" x="15" y="-333.2" font-family="Helvetica,sans-Serif" font-size="11.00">&#45; idEvaluacion: int</text>
<text text-anchor="start" x="15" y="-321.2" font-family="Helvetica,sans-Serif" font-size="11.00">&#45; fechaRealizacion: Date</text>
<text text-anchor="start" x="15" y="-309.2" font-family="Helvetica,sans-Serif" font-size="11.00">&#45; puntajeGlobal: double</text>
<text text-anchor="start" x="15" y="-297.2" font-family="Helvetica,sans-Serif" font-size="11.00">&#45; preguntas: List&lt;Ejercicio&gt;</text>
<text text-anchor="start" x="15" y="-285.2" font-family="Helvetica,sans-Serif" font-size="11.00">&#45; estudiante: Estudiante</text>
<polygon fill="none" stroke="black" points="8,-237 8,-275 336,-275 336,-237 8,-237"/>
<text text-anchor="start" x="15" y="-259.2" font-family="Helvetica,sans-Serif" font-size="11.00">+ generarPreguntasAleatorias(banco, n): List&lt;Ejercicio&gt;</text>
<text text-anchor="start" x="15" y="-247.2" font-family="Helvetica,sans-Serif" font-size="11.00">+ evaluarConocimientos(respuestas): void</text>
</g>
<!-- Estudiante&#45;&gt;EvaluacionDiagnostico -->
<g id="edge4" class="edge">
<title>Estudiante&#45;&gt;EvaluacionDiagnostico</title>
<path fill="none" stroke="#333333" d="M612.91,-479.53C532.77,-448.17 430.14,-408.01 344.06,-374.33"/>
<text text-anchor="middle" x="360.03" y="-370.81" font-family="Helvetica,sans-Serif" font-size="10.00">1</text>
<text text-anchor="middle" x="596.95" y="-478.04" font-family="Helvetica,sans-Serif" font-size="10.00">1</text>
</g>
<!-- RutaCritica -->
<g id="node7" class="node">
<title>RutaCritica</title>
<polygon fill="#8a1538" stroke="transparent" points="438,-349 438,-375 678,-375 678,-349 438,-349"/>
<polygon fill="none" stroke="black" points="438,-349 438,-375 678,-375 678,-349 438,-349"/>
<text text-anchor="start" x="523" y="-360.2" font-family="Helvetica,sans-Serif" font-weight="bold" font-size="11.00" fill="white">RutaCritica</text>
<polygon fill="none" stroke="black" points="438,-287 438,-349 678,-349 678,-287 438,-287"/>
<text text-anchor="start" x="445" y="-333.2" font-family="Helvetica,sans-Serif" font-size="11.00">&#45; idRuta: int</text>
<text text-anchor="start" x="445" y="-321.2" font-family="Helvetica,sans-Serif" font-size="11.00">&#45; estadoCompletado: boolean</text>
<text text-anchor="start" x="445" y="-309.2" font-family="Helvetica,sans-Serif" font-size="11.00">&#45; secuencia: List&lt;Ejercicio&gt;</text>
<text text-anchor="start" x="445" y="-297.2" font-family="Helvetica,sans-Serif" font-size="11.00">&#45; estudiante: Estudiante</text>
<polygon fill="none" stroke="black" points="438,-237 438,-287 678,-287 678,-237 438,-237"/>
<text text-anchor="start" x="445" y="-271.2" font-family="Helvetica,sans-Serif" font-size="11.00">+ generarSecuencia(evaluacion): void</text>
<text text-anchor="start" x="445" y="-259.2" font-family="Helvetica,sans-Serif" font-size="11.00">+ insertarRefuerzoPrerrequisito(m): void</text>
<text text-anchor="start" x="445" y="-247.2" font-family="Helvetica,sans-Serif" font-size="11.00">+ marcarComoCompletado(): void</text>
</g>
<!-- Estudiante&#45;&gt;RutaCritica -->
<g id="edge5" class="edge">
<title>Estudiante&#45;&gt;RutaCritica</title>
<path fill="none" stroke="#333333" d="M681.43,-453.94C661.06,-429.69 638.72,-403.09 618.7,-379.26"/>
<text text-anchor="middle" x="633.2" y="-383.52" font-family="Helvetica,sans-Serif" font-size="10.00">1</text>
<text text-anchor="middle" x="666.92" y="-444.68" font-family="Helvetica,sans-Serif" font-size="10.00">1</text>
</g>
<!-- ReporteProgreso -->
<g id="node8" class="node">
<title>ReporteProgreso</title>
<polygon fill="#8a1538" stroke="transparent" points="816,-355 816,-381 1070,-381 1070,-355 816,-355"/>
<polygon fill="none" stroke="black" points="816,-355 816,-381 1070,-381 1070,-355 816,-355"/>
<text text-anchor="start" x="890.5" y="-366.2" font-family="Helvetica,sans-Serif" font-weight="bold" font-size="11.00" fill="white">ReporteProgreso</text>
<polygon fill="none" stroke="black" points="816,-281 816,-355 1070,-355 1070,-281 816,-281"/>
<text text-anchor="start" x="823" y="-339.2" font-family="Helvetica,sans-Serif" font-size="11.00">&#45; idReporte: int</text>
<text text-anchor="start" x="823" y="-327.2" font-family="Helvetica,sans-Serif" font-size="11.00">&#45; diasSinPracticar: int</text>
<text text-anchor="start" x="823" y="-315.2" font-family="Helvetica,sans-Serif" font-size="11.00">&#45; porcentajeRendimiento: double</text>
<text text-anchor="start" x="823" y="-303.2" font-family="Helvetica,sans-Serif" font-size="11.00">&#45; avancePorMateria: Map&lt;Materia,Double&gt;</text>
<text text-anchor="start" x="823" y="-291.2" font-family="Helvetica,sans-Serif" font-size="11.00">&#45; estudiante: Estudiante</text>
<polygon fill="none" stroke="black" points="816,-231 816,-281 1070,-281 1070,-231 816,-231"/>
<text text-anchor="start" x="823" y="-265.2" font-family="Helvetica,sans-Serif" font-size="11.00">+ obtenerAvance(m): double</text>
<text text-anchor="start" x="823" y="-253.2" font-family="Helvetica,sans-Serif" font-size="11.00">+ generarAlertaRiesgo(): String</text>
<text text-anchor="start" x="823" y="-241.2" font-family="Helvetica,sans-Serif" font-size="11.00">+ registrarAvance(m, porc): void</text>
</g>
<!-- Estudiante&#45;&gt;ReporteProgreso -->
<g id="edge3" class="edge">
<title>Estudiante&#45;&gt;ReporteProgreso</title>
<path fill="none" stroke="#333333" d="M823.03,-444.73C840.08,-425.15 858.07,-404.49 874.79,-385.31"/>
<polygon fill="#333333" stroke="#333333" points="822.88,-444.89 821.96,-452.04 815,-453.94 815.93,-446.79 822.88,-444.89"/>
<text text-anchor="middle" x="870.36" y="-398.18" font-family="Helvetica,sans-Serif" font-size="10.00">1</text>
<text text-anchor="middle" x="819.43" y="-436.06" font-family="Helvetica,sans-Serif" font-size="10.00">1</text>
</g>
<!-- Docente -->
<g id="node3" class="node">
<title>Docente</title>
<polygon fill="#8a1538" stroke="transparent" points="1136,-552 1136,-578 1344,-578 1344,-552 1136,-552"/>
<polygon fill="none" stroke="black" points="1136,-552 1136,-578 1344,-578 1344,-552 1136,-552"/>
<text text-anchor="start" x="1214" y="-563.2" font-family="Helvetica,sans-Serif" font-weight="bold" font-size="11.00" fill="white">Docente</text>
<polygon fill="none" stroke="black" points="1136,-526 1136,-552 1344,-552 1344,-526 1136,-526"/>
<text text-anchor="start" x="1143" y="-536.2" font-family="Helvetica,sans-Serif" font-size="11.00">&#45; departamento: String</text>
<polygon fill="none" stroke="black" points="1136,-488 1136,-526 1344,-526 1344,-488 1136,-488"/>
<text text-anchor="start" x="1143" y="-510.2" font-family="Helvetica,sans-Serif" font-size="11.00">+ getRol(): String</text>
<text text-anchor="start" x="1143" y="-498.2" font-family="Helvetica,sans-Serif" font-size="11.00">+ puedeGestionarBanco(): boolean</text>
</g>
<!-- Docente&#45;&gt;Usuario -->
<g id="edge2" class="edge">
<title>Docente&#45;&gt;Usuario</title>
<path fill="none" stroke="#333333" stroke-width="1.4" d="M1240,-483.73C1240,-456 1240,-420.44 1240,-388.5"/>
<polygon fill="none" stroke="#333333" stroke-width="1.4" points="1243.5,-388.27 1240,-378.27 1236.5,-388.27 1243.5,-388.27"/>
</g>
<!-- Materia&#45;&gt;Materia -->
<g id="edge7" class="edge">
<title>Materia&#45;&gt;Materia</title>
<path fill="none" stroke="#333333" d="M876.69,-98.81C900.11,-96.27 916.5,-89.66 916.5,-79 916.5,-69.92 904.61,-63.78 886.62,-60.59"/>
<polygon fill="#333333" stroke="#333333" points="876.69,-59.19 887.22,-56.13 881.64,-59.89 886.59,-60.59 886.59,-60.59 886.59,-60.59 881.64,-59.89 885.96,-65.04 876.69,-59.19 876.69,-59.19"/>
<text text-anchor="middle" x="950.5" y="-76.5" font-family="Helvetica,sans-Serif" font-size="10.00">prerrequisitos</text>
<text text-anchor="middle" x="891.99" y="-52.02" font-family="Helvetica,sans-Serif" font-size="10.00">*</text>
</g>
<!-- Ejercicio -->
<g id="node5" class="node">
<title>Ejercicio</title>
<polygon fill="#8a1538" stroke="transparent" points="278,-128 278,-154 530,-154 530,-128 278,-128"/>
<polygon fill="none" stroke="black" points="278,-128 278,-154 530,-154 530,-128 278,-128"/>
<text text-anchor="start" x="377.5" y="-139.2" font-family="Helvetica,sans-Serif" font-weight="bold" font-size="11.00" fill="white">Ejercicio</text>
<polygon fill="none" stroke="black" points="278,-42 278,-128 530,-128 530,-42 278,-42"/>
<text text-anchor="start" x="285" y="-112.2" font-family="Helvetica,sans-Serif" font-size="11.00">&#45; idEjercicio: int</text>
<text text-anchor="start" x="285" y="-100.2" font-family="Helvetica,sans-Serif" font-size="11.00">&#45; tema: String</text>
<text text-anchor="start" x="285" y="-88.2" font-family="Helvetica,sans-Serif" font-size="11.00">&#45; nivelDificultad: String</text>
<text text-anchor="start" x="285" y="-76.2" font-family="Helvetica,sans-Serif" font-size="11.00">&#45; enunciado: String</text>
<text text-anchor="start" x="285" y="-64.2" font-family="Helvetica,sans-Serif" font-size="11.00">&#45; solucionCorrecta: String</text>
<text text-anchor="start" x="285" y="-52.2" font-family="Helvetica,sans-Serif" font-size="11.00">&#45; materia: Materia</text>
<polygon fill="none" stroke="black" points="278,-4 278,-42 530,-42 530,-4 278,-4"/>
<text text-anchor="start" x="285" y="-26.2" font-family="Helvetica,sans-Serif" font-size="11.00">+ verificarRespuesta(r): boolean</text>
<text text-anchor="start" x="285" y="-14.2" font-family="Helvetica,sans-Serif" font-size="11.00">+ ajustarDificultadDinamica(aciertos): void</text>
</g>
<!-- Ejercicio&#45;&gt;Materia -->
<g id="edge8" class="edge">
<title>Ejercicio&#45;&gt;Materia</title>
<path fill="none" stroke="#333333" d="M538.32,-79C564.68,-79 591.03,-79 617.39,-79"/>
<text text-anchor="middle" x="602.89" y="-83.26" font-family="Helvetica,sans-Serif" font-size="10.00">1</text>
<text text-anchor="middle" x="552.82" y="-69.74" font-family="Helvetica,sans-Serif" font-size="10.00">*</text>
</g>
<!-- EvaluacionDiagnostico&#45;&gt;Ejercicio -->
<g id="edge10" class="edge">
<title>EvaluacionDiagnostico&#45;&gt;Ejercicio</title>
<path fill="none" stroke="#333333" d="M255.09,-224.41C277.27,-202.91 301.19,-179.71 323.24,-158.33"/>
<polygon fill="none" stroke="#333333" points="254.98,-224.53 253.46,-231.57 246.36,-232.88 247.89,-225.83 254.98,-224.53"/>
<text text-anchor="middle" x="317.54" y="-170.78" font-family="Helvetica,sans-Serif" font-size="10.00">*</text>
</g>
<!-- EvaluacionDiagnostico&#45;&gt;RutaCritica -->
<g id="edge11" class="edge">
<title>EvaluacionDiagnostico&#45;&gt;RutaCritica</title>
<path fill="none" stroke="#333333" stroke-dasharray="5,2" d="M344.12,-306C369.47,-306 395.31,-306 419.86,-306"/>
<polygon fill="#333333" stroke="#333333" points="429.93,-306 419.93,-310.5 424.93,-306 419.93,-306 419.93,-306 419.93,-306 424.93,-306 419.93,-301.5 429.93,-306 429.93,-306"/>
<text text-anchor="middle" x="387" y="-312" font-family="Helvetica,sans-Serif" font-size="10.00">«genera»</text>
</g>
<!-- RutaCritica&#45;&gt;Ejercicio -->
<g id="edge9" class="edge">
<title>RutaCritica&#45;&gt;Ejercicio</title>
<path fill="none" stroke="#333333" d="M501.67,-222.7C487.28,-201.68 471.86,-179.14 457.61,-158.33"/>
<polygon fill="none" stroke="#333333" points="501.86,-222.98 508.55,-225.67 508.64,-232.88 501.95,-230.19 501.86,-222.98"/>
<text text-anchor="middle" x="471.38" y="-163.97" font-family="Helvetica,sans-Serif" font-size="10.00">*</text>
</g>
</g>
</svg>
